<?xml version="1.0" encoding="UTF-8" standalone="no"?>
<!DOCTYPE svg PUBLIC "-//W3C//DTD SVG 1.1//EN" "http://www.w3.org/Graphics/SVG/1.1/DTD/svg11.dtd">
<svg width="100%" height="100%" viewBox="0 0 310 85" version="1.1" xmlns="http://www.w3.org/2000/svg" xmlns:xlink="http://www.w3.org/1999/xlink" xml:space="preserve" xmlns:serif="http://www.serif.com/" style="fill-rule:evenodd;clip-rule:evenodd;stroke-linejoin:round;stroke-miterlimit:2;">
    <g>
        <path d="M131.507,82.471L131.507,69.963L152.184,69.963C155.884,69.963 158.767,68.841 160.833,66.597C162.899,64.353 163.932,61.681 163.932,58.582C163.932,56.497 163.467,54.586 162.537,52.849C161.608,51.112 160.265,49.736 158.509,48.722C156.753,47.708 154.645,47.201 152.184,47.201L131.507,47.201L131.507,34.862L150.494,34.862C153.63,34.862 156.156,34.064 158.072,32.467C159.988,30.871 160.946,28.486 160.946,25.312C160.946,22.138 159.988,19.753 158.072,18.156C156.156,16.56 153.63,15.762 150.494,15.762L131.507,15.762L131.507,3.254L152.325,3.254C157.546,3.254 161.936,4.216 165.495,6.141C169.054,8.066 171.735,10.583 173.538,13.691C175.341,16.799 176.243,20.194 176.243,23.875C176.243,28.401 174.876,32.298 172.144,35.566C169.411,38.834 165.406,41.266 160.129,42.863L160.833,37.876C166.674,39.529 171.2,42.252 174.411,46.046C177.623,49.84 179.229,54.403 179.229,59.737C179.229,63.944 178.191,67.761 176.116,71.189C174.041,74.616 171.031,77.354 167.087,79.401C163.143,81.448 158.363,82.471 152.748,82.471L131.507,82.471ZM120.266,82.471L120.266,3.254L135.507,3.254L135.507,82.471L120.266,82.471Z" style="fill:url(#_Radial1);fill-rule:nonzero;"/>
        <path d="M215.373,83.655C209.701,83.655 204.635,82.434 200.174,79.992C195.714,77.551 192.197,74.175 189.624,69.865C187.051,65.554 185.765,60.686 185.765,55.258C185.765,49.849 187.028,45.008 189.554,40.736C192.08,36.463 195.516,33.082 199.864,30.594C204.212,28.105 209.062,26.861 214.415,26.861C219.636,26.861 224.251,28.03 228.261,30.369C232.271,32.707 235.421,35.923 237.712,40.017C240.004,44.111 241.149,48.778 241.149,54.018C241.149,54.976 241.093,55.962 240.98,56.976C240.868,57.991 240.68,59.127 240.417,60.385L194.61,60.47L194.61,49.483L233.543,49.398L227.514,53.934C227.402,50.704 226.834,48.004 225.81,45.835C224.786,43.665 223.322,42.008 221.415,40.862C219.509,39.717 217.157,39.144 214.358,39.144C211.429,39.144 208.884,39.792 206.724,41.088C204.564,42.384 202.897,44.21 201.724,46.567C200.55,48.924 199.963,51.746 199.963,55.033C199.963,58.338 200.587,61.207 201.836,63.639C203.085,66.071 204.865,67.94 207.175,69.245C209.485,70.55 212.189,71.203 215.288,71.203C218.03,71.203 220.537,70.729 222.81,69.78C225.082,68.832 227.045,67.418 228.698,65.54L237.374,74.274C234.707,77.372 231.477,79.711 227.683,81.288C223.89,82.866 219.786,83.655 215.373,83.655Z" style="fill:url(#_Radial2);fill-rule:nonzero;"/>
        <rect x="250.389" y="1" width="14.818" height="81.471" style="fill:url(#_Radial3);fill-rule:nonzero;"/>
        <path d="M279.913,82.471L279.913,5.451L294.731,5.451L294.731,82.471L279.913,82.471ZM267.236,41.003L267.236,28.044L307.408,28.044L307.408,41.003L267.236,41.003Z" style="fill:url(#_Radial4);fill-rule:nonzero;"/>
        <path d="M13.303,82.443C10.116,82.443 7.435,81.355 5.261,79.178C3.087,77.002 2,74.318 2,71.126C2,67.935 3.087,65.251 5.261,63.074C7.435,60.898 10.116,59.81 13.303,59.81L92.427,59.81C95.615,59.81 98.295,60.898 100.47,63.074C102.644,65.251 103.731,67.935 103.731,71.126C103.731,74.318 102.644,77.002 100.47,79.178C98.295,81.355 95.615,82.443 92.427,82.443L13.303,82.443ZM13.303,76.785L92.427,76.785C94.028,76.785 95.372,76.242 96.457,75.155C97.542,74.069 98.083,72.726 98.079,71.126C98.075,69.527 97.533,68.184 96.451,67.098C95.37,66.011 94.028,65.468 92.427,65.468L13.303,65.468C11.702,65.468 10.361,66.011 9.279,67.098C8.198,68.184 7.655,69.527 7.652,71.126C7.648,72.726 8.19,74.071 9.279,75.161C10.368,76.251 11.71,76.792 13.303,76.785M46.999,48.493L46.999,3.226L92.212,3.226L92.212,48.493L46.999,48.493ZM2,39.943L2,34.381L35.594,34.381L35.594,39.943L2,39.943ZM58.302,23.03L80.909,23.03L80.909,17.405L58.302,17.405L58.302,23.03ZM13.303,23.03L35.594,23.03L35.594,17.405L13.303,17.405L13.303,23.03Z" style="fill:url(#_Radial5);fill-rule:nonzero;"/>
    </g>
    <defs>
        <radialGradient id="_Radial1" cx="0" cy="0" r="1" gradientUnits="userSpaceOnUse" gradientTransform="matrix(295.408,0,0,82.6545,12,68.9778)"><stop offset="0" style="stop-color:rgb(96,165,250);stop-opacity:1"/><stop offset="0.41" style="stop-color:rgb(167,139,250);stop-opacity:1"/><stop offset="0.69" style="stop-color:rgb(148,146,250);stop-opacity:1"/><stop offset="1" style="stop-color:rgb(96,165,250);stop-opacity:1"/></radialGradient>
        <radialGradient id="_Radial2" cx="0" cy="0" r="1" gradientUnits="userSpaceOnUse" gradientTransform="matrix(295.408,0,0,82.6545,12,68.9778)"><stop offset="0" style="stop-color:rgb(96,165,250);stop-opacity:1"/><stop offset="0.41" style="stop-color:rgb(167,139,250);stop-opacity:1"/><stop offset="0.69" style="stop-color:rgb(148,146,250);stop-opacity:1"/><stop offset="1" style="stop-color:rgb(96,165,250);stop-opacity:1"/></radialGradient>
        <radialGradient id="_Radial3" cx="0" cy="0" r="1" gradientUnits="userSpaceOnUse" gradientTransform="matrix(295.408,0,0,82.6545,12,68.9778)"><stop offset="0" style="stop-color:rgb(96,165,250);stop-opacity:1"/><stop offset="0.41" style="stop-color:rgb(167,139,250);stop-opacity:1"/><stop offset="0.69" style="stop-color:rgb(148,146,250);stop-opacity:1"/><stop offset="1" style="stop-color:rgb(96,165,250);stop-opacity:1"/></radialGradient>
        <radialGradient id="_Radial4" cx="0" cy="0" r="1" gradientUnits="userSpaceOnUse" gradientTransform="matrix(295.408,0,0,82.6545,12,68.9778)"><stop offset="0" style="stop-color:rgb(96,165,250);stop-opacity:1"/><stop offset="0.41" style="stop-color:rgb(167,139,250);stop-opacity:1"/><stop offset="0.69" style="stop-color:rgb(148,146,250);stop-opacity:1"/><stop offset="1" style="stop-color:rgb(96,165,250);stop-opacity:1"/></radialGradient>
        <radialGradient id="_Radial5" cx="0" cy="0" r="1" gradientUnits="userSpaceOnUse" gradientTransform="matrix(303.476,0,0,85.0127,2,70.8537)"><stop offset="0" style="stop-color:rgb(96,165,250);stop-opacity:1"/><stop offset="0.41" style="stop-color:rgb(167,139,250);stop-opacity:1"/><stop offset="0.69" style="stop-color:rgb(148,146,250);stop-opacity:1"/><stop offset="1" style="stop-color:rgb(96,165,250);stop-opacity:1"/></radialGradient>
    </defs>
</svg>
