# File produced by Open Asset Import Library (http://www.assimp.sf.net)
# (assimp v5.4.0)

mtllib cube.mtl

# 684 vertex positions
v 15 30 -15
v 15 0 -15
v -15 0 -15
v 15 30 -15
v -15 0 -15
v -15 30 -15
v 15 30 15
v -15 30 15
v -15 0 15
v 15 30 15
v -15 0 15
v 15 0 15
v 15 30 -15
v 15 30 15
v 15 0 15
v 15 30 -15
v 15 0 15
v 15 0 -15
v 15 0 -15
v 15 0 15
v -15 0 15
v 15 0 -15
v -15 0 15
v -15 0 -15
v -15 0 -15
v -15 0 15
v -15 30 15
v -15 0 -15
v -15 30 15
v -15 30 -15
v 15 30 15
v 15 30 -15
v -15 30 -15
v 15 30 15
v -15 30 -15
v -15 30 15
v 15 30 -15
v 15 0 -15
v -15 0 -15
v 15 30 -15
v -15 0 -15
v -15 30 -15
v 15 30 15
v -15 30 15
v -15 0 15
v 15 30 15
v -15 0 15
v 15 0 15
v 15 30 -15
v 15 30 15
v 15 0 15
v 15 30 -15
v 15 0 15
v 15 0 -15
v 15 0 -15
v 15 0 15
v -15 0 15
v 15 0 -15
v -15 0 15
v -15 0 -15
v -15 0 -15
v -15 0 15
v -15 30 15
v -15 0 -15
v -15 30 15
v -15 30 -15
v 15 30 15
v 15 30 -15
v -15 30 -15
v 15 30 15
v -15 30 -15
v -15 30 15
v 15 30 -15
v 15 0 -15
v -15 0 -15
v 15 30 -15
v -15 0 -15
v -15 30 -15
v 15 30 15
v -15 30 15
v -15 0 15
v 15 30 15
v -15 0 15
v 15 0 15
v 15 30 -15
v 15 30 15
v 15 0 15
v 15 30 -15
v 15 0 15
v 15 0 -15
v 15 0 -15
v 15 0 15
v -15 0 15
v 15 0 -15
v -15 0 15
v -15 0 -15
v -15 0 -15
v -15 0 15
v -15 30 15
v -15 0 -15
v -15 30 15
v -15 30 -15
v 15 30 15
v 15 30 -15
v -15 30 -15
v 15 30 15
v -15 30 -15
v -15 30 15
v 15 30 -15
v 15 0 -15
v -15 0 -15
v 15 30 -15
v -15 0 -15
v -15 30 -15
v 15 30 15
v -15 30 15
v -15 0 15
v 15 30 15
v -15 0 15
v 15 0 15
v 15 30 -15
v 15 30 15
v 15 0 15
v 15 30 -15
v 15 0 15
v 15 0 -15
v 15 0 -15
v 15 0 15
v -15 0 15
v 15 0 -15
v -15 0 15
v -15 0 -15
v -15 0 -15
v -15 0 15
v -15 30 15
v -15 0 -15
v -15 30 15
v -15 30 -15
v 15 30 15
v 15 30 -15
v -15 30 -15
v 15 30 15
v -15 30 -15
v -15 30 15
v 15 30 -15
v 15 0 -15
v -15 0 -15
v 15 30 -15
v -15 0 -15
v -15 30 -15
v 15 30 15
v -15 30 15
v -15 0 15
v 15 30 15
v -15 0 15
v 15 0 15
v 15 30 -15
v 15 30 15
v 15 0 15
v 15 30 -15
v 15 0 15
v 15 0 -15
v 15 0 -15
v 15 0 15
v -15 0 15
v 15 0 -15
v -15 0 15
v -15 0 -15
v -15 0 -15
v -15 0 15
v -15 30 15
v -15 0 -15
v -15 30 15
v -15 30 -15
v 15 30 15
v 15 30 -15
v -15 30 -15
v 15 30 15
v -15 30 -15
v -15 30 15
v 15 30 -15
v 15 0 -15
v -15 0 -15
v 15 30 -15
v -15 0 -15
v -15 30 -15
v 15 30 15
v -15 30 15
v -15 0 15
v 15 30 15
v -15 0 15
v 15 0 15
v 15 30 -15
v 15 30 15
v 15 0 15
v 15 30 -15
v 15 0 15
v 15 0 -15
v 15 0 -15
v 15 0 15
v -15 0 15
v 15 0 -15
v -15 0 15
v -15 0 -15
v -15 0 -15
v -15 0 15
v -15 30 15
v -15 0 -15
v -15 30 15
v -15 30 -15
v 15 30 15
v 15 30 -15
v -15 30 -15
v 15 30 15
v -15 30 -15
v -15 30 15
v 15 30 -15
v 15 0 -15
v -15 0 -15
v 15 30 -15
v -15 0 -15
v -15 30 -15
v 15 30 15
v -15 30 15
v -15 0 15
v 15 30 15
v -15 0 15
v 15 0 15
v 15 30 -15
v 15 30 15
v 15 0 15
v 15 30 -15
v 15 0 15
v 15 0 -15
v 15 0 -15
v 15 0 15
v -15 0 15
v 15 0 -15
v -15 0 15
v -15 0 -15
v -15 0 -15
v -15 0 15
v -15 30 15
v -15 0 -15
v -15 30 15
v -15 30 -15
v 15 30 15
v 15 30 -15
v -15 30 -15
v 15 30 15
v -15 30 -15
v -15 30 15
v 15 30 -15
v 15 0 -15
v -15 0 -15
v 15 30 -15
v -15 0 -15
v -15 30 -15
v 15 30 15
v -15 30 15
v -15 0 15
v 15 30 15
v -15 0 15
v 15 0 15
v 15 30 -15
v 15 30 15
v 15 0 15
v 15 30 -15
v 15 0 15
v 15 0 -15
v 15 0 -15
v 15 0 15
v -15 0 15
v 15 0 -15
v -15 0 15
v -15 0 -15
v -15 0 -15
v -15 0 15
v -15 30 15
v -15 0 -15
v -15 30 15
v -15 30 -15
v 15 30 15
v 15 30 -15
v -15 30 -15
v 15 30 15
v -15 30 -15
v -15 30 15
v 15 30 -15
v 15 0 -15
v -15 0 -15
v 15 30 -15
v -15 0 -15
v -15 30 -15
v 15 30 15
v -15 30 15
v -15 0 15
v 15 30 15
v -15 0 15
v 15 0 15
v 15 30 -15
v 15 30 15
v 15 0 15
v 15 30 -15
v 15 0 15
v 15 0 -15
v 15 0 -15
v 15 0 15
v -15 0 15
v 15 0 -15
v -15 0 15
v -15 0 -15
v -15 0 -15
v -15 0 15
v -15 30 15
v -15 0 -15
v -15 30 15
v -15 30 -15
v 15 30 15
v 15 30 -15
v -15 30 -15
v 15 30 15
v -15 30 -15
v -15 30 15
v 15 30 -15
v 15 0 -15
v -15 0 -15
v 15 30 -15
v -15 0 -15
v -15 30 -15
v 15 30 15
v -15 30 15
v -15 0 15
v 15 30 15
v -15 0 15
v 15 0 15
v 15 30 -15
v 15 30 15
v 15 0 15
v 15 30 -15
v 15 0 15
v 15 0 -15
v 15 0 -15
v 15 0 15
v -15 0 15
v 15 0 -15
v -15 0 15
v -15 0 -15
v -15 0 -15
v -15 0 15
v -15 30 15
v -15 0 -15
v -15 30 15
v -15 30 -15
v 15 30 15
v 15 30 -15
v -15 30 -15
v 15 30 15
v -15 30 -15
v -15 30 15
v 15 30 -15
v 15 0 -15
v -15 0 -15
v 15 30 -15
v -15 0 -15
v -15 30 -15
v 15 30 15
v -15 30 15
v -15 0 15
v 15 30 15
v -15 0 15
v 15 0 15
v 15 30 -15
v 15 30 15
v 15 0 15
v 15 30 -15
v 15 0 15
v 15 0 -15
v 15 0 -15
v 15 0 15
v -15 0 15
v 15 0 -15
v -15 0 15
v -15 0 -15
v -15 0 -15
v -15 0 15
v -15 30 15
v -15 0 -15
v -15 30 15
v -15 30 -15
v 15 30 15
v 15 30 -15
v -15 30 -15
v 15 30 15
v -15 30 -15
v -15 30 15
v 15 30 -15
v 15 0 -15
v -15 0 -15
v 15 30 -15
v -15 0 -15
v -15 30 -15
v 15 30 15
v -15 30 15
v -15 0 15
v 15 30 15
v -15 0 15
v 15 0 15
v 15 30 -15
v 15 30 15
v 15 0 15
v 15 30 -15
v 15 0 15
v 15 0 -15
v 15 0 -15
v 15 0 15
v -15 0 15
v 15 0 -15
v -15 0 15
v -15 0 -15
v -15 0 -15
v -15 0 15
v -15 30 15
v -15 0 -15
v -15 30 15
v -15 30 -15
v 15 30 15
v 15 30 -15
v -15 30 -15
v 15 30 15
v -15 30 -15
v -15 30 15
v 15 30 -15
v 15 0 -15
v -15 0 -15
v 15 30 -15
v -15 0 -15
v -15 30 -15
v 15 30 15
v -15 30 15
v -15 0 15
v 15 30 15
v -15 0 15
v 15 0 15
v 15 30 -15
v 15 30 15
v 15 0 15
v 15 30 -15
v 15 0 15
v 15 0 -15
v 15 0 -15
v 15 0 15
v -15 0 15
v 15 0 -15
v -15 0 15
v -15 0 -15
v -15 0 -15
v -15 0 15
v -15 30 15
v -15 0 -15
v -15 30 15
v -15 30 -15
v 15 30 15
v 15 30 -15
v -15 30 -15
v 15 30 15
v -15 30 -15
v -15 30 15
v 15 30 -15
v 15 0 -15
v -15 0 -15
v 15 30 -15
v -15 0 -15
v -15 30 -15
v 15 30 15
v -15 30 15
v -15 0 15
v 15 30 15
v -15 0 15
v 15 0 15
v 15 30 -15
v 15 30 15
v 15 0 15
v 15 30 -15
v 15 0 15
v 15 0 -15
v 15 0 -15
v 15 0 15
v -15 0 15
v 15 0 -15
v -15 0 15
v -15 0 -15
v -15 0 -15
v -15 0 15
v -15 30 15
v -15 0 -15
v -15 30 15
v -15 30 -15
v 15 30 15
v 15 30 -15
v -15 30 -15
v 15 30 15
v -15 30 -15
v -15 30 15
v 15 30 -15
v 15 0 -15
v -15 0 -15
v 15 30 -15
v -15 0 -15
v -15 30 -15
v 15 30 15
v -15 30 15
v -15 0 15
v 15 30 15
v -15 0 15
v 15 0 15
v 15 30 -15
v 15 30 15
v 15 0 15
v 15 30 -15
v 15 0 15
v 15 0 -15
v 15 0 -15
v 15 0 15
v -15 0 15
v 15 0 -15
v -15 0 15
v -15 0 -15
v -15 0 -15
v -15 0 15
v -15 30 15
v -15 0 -15
v -15 30 15
v -15 30 -15
v 15 30 15
v 15 30 -15
v -15 30 -15
v 15 30 15
v -15 30 -15
v -15 30 15
v 15 30 -15
v 15 0 -15
v -15 0 -15
v 15 30 -15
v -15 0 -15
v -15 30 -15
v 15 30 15
v -15 30 15
v -15 0 15
v 15 30 15
v -15 0 15
v 15 0 15
v 15 30 -15
v 15 30 15
v 15 0 15
v 15 30 -15
v 15 0 15
v 15 0 -15
v 15 0 -15
v 15 0 15
v -15 0 15
v 15 0 -15
v -15 0 15
v -15 0 -15
v -15 0 -15
v -15 0 15
v -15 30 15
v -15 0 -15
v -15 30 15
v -15 30 -15
v 15 30 15
v 15 30 -15
v -15 30 -15
v 15 30 15
v -15 30 -15
v -15 30 15
v 15 30 -15
v 15 0 -15
v -15 0 -15
v 15 30 -15
v -15 0 -15
v -15 30 -15
v 15 30 15
v -15 30 15
v -15 0 15
v 15 30 15
v -15 0 15
v 15 0 15
v 15 30 -15
v 15 30 15
v 15 0 15
v 15 30 -15
v 15 0 15
v 15 0 -15
v 15 0 -15
v 15 0 15
v -15 0 15
v 15 0 -15
v -15 0 15
v -15 0 -15
v -15 0 -15
v -15 0 15
v -15 30 15
v -15 0 -15
v -15 30 15
v -15 30 -15
v 15 30 15
v 15 30 -15
v -15 30 -15
v 15 30 15
v -15 30 -15
v -15 30 15
v 15 30 -15
v 15 0 -15
v -15 0 -15
v 15 30 -15
v -15 0 -15
v -15 30 -15
v 15 30 15
v -15 30 15
v -15 0 15
v 15 30 15
v -15 0 15
v 15 0 15
v 15 30 -15
v 15 30 15
v 15 0 15
v 15 30 -15
v 15 0 15
v 15 0 -15
v 15 0 -15
v 15 0 15
v -15 0 15
v 15 0 -15
v -15 0 15
v -15 0 -15
v -15 0 -15
v -15 0 15
v -15 30 15
v -15 0 -15
v -15 30 15
v -15 30 -15
v 15 30 15
v 15 30 -15
v -15 30 -15
v 15 30 15
v -15 30 -15
v -15 30 15
v 15 30 -15
v 15 0 -15
v -15 0 -15
v 15 30 -15
v -15 0 -15
v -15 30 -15
v 15 30 15
v -15 30 15
v -15 0 15
v 15 30 15
v -15 0 15
v 15 0 15
v 15 30 -15
v 15 30 15
v 15 0 15
v 15 30 -15
v 15 0 15
v 15 0 -15
v 15 0 -15
v 15 0 15
v -15 0 15
v 15 0 -15
v -15 0 15
v -15 0 -15
v -15 0 -15
v -15 0 15
v -15 30 15
v -15 0 -15
v -15 30 15
v -15 30 -15
v 15 30 15
v 15 30 -15
v -15 30 -15
v 15 30 15
v -15 30 -15
v -15 30 15

# 0 UV coordinates

# 6 vertex normals
vn 0 0 -1
vn 0 0 1
vn 1 0 0
vn -0 -1 -0
vn -1 0 0
vn 0 1 0

# Mesh '' with 228 faces
usemtl DefaultMaterial
f  1//1 2//1 3//1
f  4//1 5//1 6//1
f  7//2 8//2 9//2
f  10//2 11//2 12//2
f  13//3 14//3 15//3
f  16//3 17//3 18//3
f  19//4 20//4 21//4
f  22//4 23//4 24//4
f  25//5 26//5 27//5
f  28//5 29//5 30//5
f  31//6 32//6 33//6
f  34//6 35//6 36//6
f  37//1 38//1 39//1
f  40//1 41//1 42//1
f  43//2 44//2 45//2
f  46//2 47//2 48//2
f  49//3 50//3 51//3
f  52//3 53//3 54//3
f  55//4 56//4 57//4
f  58//4 59//4 60//4
f  61//5 62//5 63//5
f  64//5 65//5 66//5
f  67//6 68//6 69//6
f  70//6 71//6 72//6
f  73//1 74//1 75//1
f  76//1 77//1 78//1
f  79//2 80//2 81//2
f  82//2 83//2 84//2
f  85//3 86//3 87//3
f  88//3 89//3 90//3
f  91//4 92//4 93//4
f  94//4 95//4 96//4
f  97//5 98//5 99//5
f  100//5 101//5 102//5
f  103//6 104//6 105//6
f  106//6 107//6 108//6
f  109//1 110//1 111//1
f  112//1 113//1 114//1
f  115//2 116//2 117//2
f  118//2 119//2 120//2
f  121//3 122//3 123//3
f  124//3 125//3 126//3
f  127//4 128//4 129//4
f  130//4 131//4 132//4
f  133//5 134//5 135//5
f  136//5 137//5 138//5
f  139//6 140//6 141//6
f  142//6 143//6 144//6
f  145//1 146//1 147//1
f  148//1 149//1 150//1
f  151//2 152//2 153//2
f  154//2 155//2 156//2
f  157//3 158//3 159//3
f  160//3 161//3 162//3
f  163//4 164//4 165//4
f  166//4 167//4 168//4
f  169//5 170//5 171//5
f  172//5 173//5 174//5
f  175//6 176//6 177//6
f  178//6 179//6 180//6
f  181//1 182//1 183//1
f  184//1 185//1 186//1
f  187//2 188//2 189//2
f  190//2 191//2 192//2
f  193//3 194//3 195//3
f  196//3 197//3 198//3
f  199//4 200//4 201//4
f  202//4 203//4 204//4
f  205//5 206//5 207//5
f  208//5 209//5 210//5
f  211//6 212//6 213//6
f  214//6 215//6 216//6
f  217//1 218//1 219//1
f  220//1 221//1 222//1
f  223//2 224//2 225//2
f  226//2 227//2 228//2
f  229//3 230//3 231//3
f  232//3 233//3 234//3
f  235//4 236//4 237//4
f  238//4 239//4 240//4
f  241//5 242//5 243//5
f  244//5 245//5 246//5
f  247//6 248//6 249//6
f  250//6 251//6 252//6
f  253//1 254//1 255//1
f  256//1 257//1 258//1
f  259//2 260//2 261//2
f  262//2 263//2 264//2
f  265//3 266//3 267//3
f  268//3 269//3 270//3
f  271//4 272//4 273//4
f  274//4 275//4 276//4
f  277//5 278//5 279//5
f  280//5 281//5 282//5
f  283//6 284//6 285//6
f  286//6 287//6 288//6
f  289//1 290//1 291//1
f  292//1 293//1 294//1
f  295//2 296//2 297//2
f  298//2 299//2 300//2
f  301//3 302//3 303//3
f  304//3 305//3 306//3
f  307//4 308//4 309//4
f  310//4 311//4 312//4
f  313//5 314//5 315//5
f  316//5 317//5 318//5
f  319//6 320//6 321//6
f  322//6 323//6 324//6
f  325//1 326//1 327//1
f  328//1 329//1 330//1
f  331//2 332//2 333//2
f  334//2 335//2 336//2
f  337//3 338//3 339//3
f  340//3 341//3 342//3
f  343//4 344//4 345//4
f  346//4 347//4 348//4
f  349//5 350//5 351//5
f  352//5 353//5 354//5
f  355//6 356//6 357//6
f  358//6 359//6 360//6
f  361//1 362//1 363//1
f  364//1 365//1 366//1
f  367//2 368//2 369//2
f  370//2 371//2 372//2
f  373//3 374//3 375//3
f  376//3 377//3 378//3
f  379//4 380//4 381//4
f  382//4 383//4 384//4
f  385//5 386//5 387//5
f  388//5 389//5 390//5
f  391//6 392//6 393//6
f  394//6 395//6 396//6
f  397//1 398//1 399//1
f  400//1 401//1 402//1
f  403//2 404//2 405//2
f  406//2 407//2 408//2
f  409//3 410//3 411//3
f  412//3 413//3 414//3
f  415//4 416//4 417//4
f  418//4 419//4 420//4
f  421//5 422//5 423//5
f  424//5 425//5 426//5
f  427//6 428//6 429//6
f  430//6 431//6 432//6
f  433//1 434//1 435//1
f  436//1 437//1 438//1
f  439//2 440//2 441//2
f  442//2 443//2 444//2
f  445//3 446//3 447//3
f  448//3 449//3 450//3
f  451//4 452//4 453//4
f  454//4 455//4 456//4
f  457//5 458//5 459//5
f  460//5 461//5 462//5
f  463//6 464//6 465//6
f  466//6 467//6 468//6
f  469//1 470//1 471//1
f  472//1 473//1 474//1
f  475//2 476//2 477//2
f  478//2 479//2 480//2
f  481//3 482//3 483//3
f  484//3 485//3 486//3
f  487//4 488//4 489//4
f  490//4 491//4 492//4
f  493//5 494//5 495//5
f  496//5 497//5 498//5
f  499//6 500//6 501//6
f  502//6 503//6 504//6
f  505//1 506//1 507//1
f  508//1 509//1 510//1
f  511//2 512//2 513//2
f  514//2 515//2 516//2
f  517//3 518//3 519//3
f  520//3 521//3 522//3
f  523//4 524//4 525//4
f  526//4 527//4 528//4
f  529//5 530//5 531//5
f  532//5 533//5 534//5
f  535//6 536//6 537//6
f  538//6 539//6 540//6
f  541//1 542//1 543//1
f  544//1 545//1 546//1
f  547//2 548//2 549//2
f  550//2 551//2 552//2
f  553//3 554//3 555//3
f  556//3 557//3 558//3
f  559//4 560//4 561//4
f  562//4 563//4 564//4
f  565//5 566//5 567//5
f  568//5 569//5 570//5
f  571//6 572//6 573//6
f  574//6 575//6 576//6
f  577//1 578//1 579//1
f  580//1 581//1 582//1
f  583//2 584//2 585//2
f  586//2 587//2 588//2
f  589//3 590//3 591//3
f  592//3 593//3 594//3
f  595//4 596//4 597//4
f  598//4 599//4 600//4
f  601//5 602//5 603//5
f  604//5 605//5 606//5
f  607//6 608//6 609//6
f  610//6 611//6 612//6
f  613//1 614//1 615//1
f  616//1 617//1 618//1
f  619//2 620//2 621//2
f  622//2 623//2 624//2
f  625//3 626//3 627//3
f  628//3 629//3 630//3
f  631//4 632//4 633//4
f  634//4 635//4 636//4
f  637//5 638//5 639//5
f  640//5 641//5 642//5
f  643//6 644//6 645//6
f  646//6 647//6 648//6
f  649//1 650//1 651//1
f  652//1 653//1 654//1
f  655//2 656//2 657//2
f  658//2 659//2 660//2
f  661//3 662//3 663//3
f  664//3 665//3 666//3
f  667//4 668//4 669//4
f  670//4 671//4 672//4
f  673//5 674//5 675//5
f  676//5 677//5 678//5
f  679//6 680//6 681//6
f  682//6 683//6 684//6

